<?xml version="1.0" encoding="UTF-8"?>
<svg width="14px" height="14px" viewBox="0 0 14 14" version="1.1" xmlns="http://www.w3.org/2000/svg" xmlns:xlink="http://www.w3.org/1999/xlink">
    <!-- Generator: Sketch 52.1 (67048) - http://www.bohemiancoding.com/sketch -->
    <title>mail</title>
    <desc>Created with Sketch.</desc>
    <g id="02---Current-Version" stroke="none" stroke-width="1" fill="none" fill-rule="evenodd">
        <g id="Artboard" transform="translate(-73.000000, -69.000000)" fill-rule="nonzero">
            <g id="mail" transform="translate(73.000000, 69.000000)">
                <circle id="Oval-7" fill="#999999" cx="7" cy="7" r="7"></circle>
                <path d="M3.28076548,4.33333333 C2.94632992,4.33333333 2.66666667,4.60013889 2.66666667,4.92982456 L2.66666667,9.30409655 C2.66666667,9.63377725 2.94632992,9.90058778 3.28076548,9.90058778 L10.7192345,9.90058778 C11.0536701,9.90058778 11.3333333,9.63377725 11.3333333,9.30409655 L11.3333333,4.92982456 C11.3333333,4.60013889 11.0536701,4.33333333 10.7192345,4.33333333 L3.28076548,4.33333333 Z M3.3846899,4.73099415 L10.6153101,4.73099415 L7.17635657,7.76316088 C7.09060091,7.83876614 6.90939905,7.83876614 6.82364339,7.76316088 L3.3846899,4.73099415 Z M3.06976742,4.98574561 L5.58599804,7.20395035 L3.06976742,9.2606024 L3.06976742,4.98574561 Z M10.9302325,4.98574561 L10.9302325,9.2606024 L8.41400192,7.20395035 L10.9302325,4.98574561 Z M5.89147285,7.47423047 L6.55595928,8.0582948 C6.80796378,8.28047784 7.19203618,8.28047784 7.44404068,8.0582948 L8.10852711,7.47423047 L10.5932655,9.50292696 L3.40673448,9.50292696 L5.89147285,7.47423047 Z" id="Shape" stroke="#FFFFFF" stroke-width="0.2" fill="#FFFFFF"></path>
            </g>
        </g>
    </g>
</svg>